<svg width="33" height="28" viewBox="0 0 33 28" fill="none" xmlns="http://www.w3.org/2000/svg">
<path d="M11.5 5.09998C14.2062 5.09998 16.4004 7.29417 16.4004 10.0004V12.1H18C19.0493 12.1 19.9004 12.951 19.9004 14.0004V25.0004C19.9002 26.0495 19.0492 26.9008 18 26.9008H5C3.95079 26.9008 3.09982 26.0495 3.09961 25.0004V14.0004C3.09961 12.951 3.95066 12.1 5 12.1H6.59961V10.0004C6.59961 7.29417 8.7938 5.09998 11.5 5.09998ZM5 13.9008C4.94477 13.9008 4.90039 13.9451 4.90039 14.0004V25.0004C4.9006 25.0554 4.9449 25.1 5 25.1H18C18.0551 25.1 18.0994 25.0554 18.0996 25.0004V14.0004C18.0996 13.9451 18.0552 13.9008 18 13.9008H5ZM7.5 15.0004C8.05228 15.0004 8.5 15.4481 8.5 16.0004C8.49979 16.5525 8.05215 17.0004 7.5 17.0004C6.94785 17.0004 6.50021 16.5525 6.5 16.0004C6.5 15.4481 6.94772 15.0004 7.5 15.0004ZM15.5 15.0004C16.0523 15.0004 16.5 15.4481 16.5 16.0004C16.4998 16.5525 16.0522 17.0004 15.5 17.0004C14.9478 17.0004 14.5002 16.5525 14.5 16.0004C14.5 15.4481 14.9477 15.0004 15.5 15.0004ZM11.5 6.90076C9.78792 6.90076 8.40039 8.28828 8.40039 10.0004V12.1H14.5996V10.0004C14.5996 8.28828 13.2121 6.90076 11.5 6.90076Z" fill="#444444"/>
<rect x="12" width="21" height="21" rx="10.5" fill="#444444"/>
<path d="M20.126 15.412C19.67 14.86 19.454 14.2 19.454 13.42H20.558C20.606 13.972 20.702 14.356 20.858 14.608C21.134 15.04 21.626 15.268 22.346 15.268C22.898 15.268 23.342 15.124 23.678 14.824C24.014 14.524 24.182 14.14 24.182 13.672C24.182 13.096 24.002 12.688 23.654 12.46C23.294 12.232 22.802 12.112 22.178 12.112H21.962C21.89 12.124 21.818 12.124 21.746 12.124V11.2C21.854 11.212 21.938 11.212 22.022 11.224H22.262C22.658 11.224 22.982 11.164 23.234 11.032C23.678 10.816 23.906 10.432 23.906 9.868C23.906 9.448 23.75 9.124 23.45 8.896C23.162 8.668 22.814 8.56 22.418 8.56C21.71 8.56 21.23 8.788 20.954 9.256C20.81 9.52 20.726 9.892 20.702 10.36H19.67C19.67 9.736 19.79 9.208 20.042 8.764C20.462 7.996 21.218 7.6 22.31 7.6C23.162 7.6 23.822 7.78 24.29 8.164C24.758 8.548 24.998 9.1 24.998 9.82C24.998 10.336 24.854 10.756 24.578 11.08C24.41 11.272 24.182 11.44 23.918 11.548C24.35 11.668 24.698 11.896 24.95 12.244C25.19 12.592 25.322 13.012 25.322 13.516C25.322 14.32 25.058 14.968 24.53 15.472C24.002 15.976 23.246 16.228 22.286 16.228C21.29 16.228 20.57 15.952 20.126 15.412Z" fill="white"/>
</svg>
