<svg width="33" height="28" viewBox="0 0 33 28" fill="none" xmlns="http://www.w3.org/2000/svg">
<path d="M11.5 5.1001C14.2062 5.1001 16.4004 7.29429 16.4004 10.0005V12.1001H18C19.0493 12.1001 19.9004 12.9511 19.9004 14.0005V25.0005C19.9002 26.0496 19.0492 26.9009 18 26.9009H5C3.95079 26.9009 3.09982 26.0496 3.09961 25.0005V14.0005C3.09961 12.9511 3.95066 12.1001 5 12.1001H6.59961V10.0005C6.59961 7.29429 8.7938 5.1001 11.5 5.1001ZM5 13.9009C4.94477 13.9009 4.90039 13.9453 4.90039 14.0005V25.0005C4.9006 25.0555 4.9449 25.1001 5 25.1001H18C18.0551 25.1001 18.0994 25.0555 18.0996 25.0005V14.0005C18.0996 13.9453 18.0552 13.9009 18 13.9009H5ZM7.5 15.0005C8.05228 15.0005 8.5 15.4482 8.5 16.0005C8.49979 16.5526 8.05215 17.0005 7.5 17.0005C6.94785 17.0005 6.50021 16.5526 6.5 16.0005C6.5 15.4482 6.94772 15.0005 7.5 15.0005ZM15.5 15.0005C16.0523 15.0005 16.5 15.4482 16.5 16.0005C16.4998 16.5526 16.0522 17.0005 15.5 17.0005C14.9478 17.0005 14.5002 16.5526 14.5 16.0005C14.5 15.4482 14.9477 15.0005 15.5 15.0005ZM11.5 6.90088C9.78792 6.90088 8.40039 8.28841 8.40039 10.0005V12.1001H14.5996V10.0005C14.5996 8.28841 13.2121 6.90088 11.5 6.90088Z" fill="#444444"/>
<rect x="12" width="21" height="21" rx="10.5" fill="#444444"/>
<path d="M19.466 13.948V12.916L23.318 7.588H24.206V13.024H25.442V13.948H24.206V16H23.15V13.948H19.466ZM20.438 13.024H23.138V9.232L20.438 13.024Z" fill="white"/>
</svg>
